<?xml version="1.0" encoding="utf-8"?>
<!-- Generator: Adobe Illustrator 22.1.0, SVG Export Plug-In . SVG Version: 6.00 Build 0)  -->
<svg version="1.1" id="Ebene_1" xmlns="http://www.w3.org/2000/svg" xmlns:xlink="http://www.w3.org/1999/xlink" x="0px" y="0px"
	 viewBox="0 0 240.6 94.1" style="enable-background:new 0 0 240.6 94.1;" xml:space="preserve">
<style type="text/css">
	.st0{fill:#373636;}
	.st1{opacity:0.1;fill:#373636;}
</style>
<g>
	<path class="st0" d="M18.4,79.2c1.5,0,1.9,0.4,1.9,1.4v0.7H12v-0.7c0-1,0.5-1.4,1.9-1.4H18.4z M38.1,87.4v-7.1
		c0-4.7-1.6-7.1-6.9-7.1h-2.7c-4.9,0-6.3,1.4-6.6,4.5h-0.1c-0.8-3.9-2.8-4.5-5.7-4.5h-2.3c-4.7,0-6.2,3.4-6.2,7.1v7.1H38.1z
		 M24.1,81.4v-0.7c0-1,0.3-1.4,1.5-1.4h6.8c1.2,0,1.5,0.4,1.5,1.4v0.7H24.1z M38.1,65.5H23.8c0-2.1,1.5-2.1,3.4-2.1h6.9
		c2.1,0,3.1-0.4,3.9-0.8v-6.1c-1.2,0.3-2.4,0.9-5.4,0.9h-6c-3.5,0-4.9,0.9-5.1,4.7h-0.1c-0.2-3.6-2.7-4.7-5-4.7h-2.7
		c-4.7,0-6.2,3.4-6.2,7.1v7.1h30.5V65.5z M12,65.5v-0.7c0-1,0.5-1.4,1.9-1.4h4.5c1.5,0,1.9,0.4,1.9,1.4v0.7H12z M25.4,49.8l-12.5-1
		v-0.2l12.5-0.8V49.8z M38.1,56.7v-5.4l-8.3-0.9v-2.9l8.3-0.7v-6.3L7.6,44.1v8L38.1,56.7z M38.1,34.9H14.2l-0.1-0.1l24-4.3v-7.2H7.6
		v4.7h19.8v0.1L7.6,31.2v8.4h30.5V34.9z M38.1,21.5v-7.1c0-3.7-1.5-7.1-5.6-7.1H13.2c-4.1,0-5.6,3.4-5.6,7.1v7.1H38.1z M12,15.5
		v-1.1c0-0.9,1.2-1.1,2-1.1h17.8c0.9,0,2,0.1,2,1.1v1.1H12z"/>
	<path class="st1" d="M228.9,7.3H55.4c-1.9,0-3.4,1.5-3.4,3.4s1.5,3.4,3.4,3.4h16.3V61H55.4c-1.9,0-3.4,1.5-3.4,3.4
		c0,1.9,1.5,3.4,3.4,3.4h16.3v12.6H55.4c-1.9,0-3.4,1.5-3.4,3.4s1.5,3.4,3.4,3.4h173.5c1.9,0,3.4-1.5,3.4-3.4V10.8
		C232.3,8.9,230.8,7.3,228.9,7.3z M209.1,60.1c-1.9,0-3.4,1.5-3.4,3.4v17h-9.3V48.4h29v32.2h-12.9v-17
		C212.6,61.6,211.1,60.1,209.1,60.1z M225.4,41.5h-29V14.2h29V41.5z M78.6,14.2h92.5l-19.6,17.6l-18.2-0.1c0,0,0,0,0,0
		c-1.9,0-3.4,1.5-3.4,3.4c0,1.9,1.5,3.5,3.4,3.5l19.6,0.1c0,0,0,0,0,0c0.9,0,1.7-0.3,2.3-0.9l26.3-23.6h8.1v27.3h-9.5
		c-1.9,0-3.4,1.5-3.4,3.4s1.5,3.4,3.4,3.4h9.5v32.2h-72.1V67.9h32.9c1.9,0,3.4-1.5,3.4-3.4c0-1.9-1.5-3.4-3.4-3.4h-23.7l1.1-2.9
		h52.3c1.9,0,3.4-1.5,3.4-3.4s-1.5-3.4-3.4-3.4H114c-1.9,0-3.4,1.5-3.4,3.4v15.1L87.3,42.7c-1.2-1.4-3.4-1.6-4.9-0.4
		c-1.4,1.2-1.6,3.4-0.4,4.9L93.9,61H78.6V14.2z M120.3,58.1l-1.1,2.9h-1.8v-2.9H120.3z M78.6,67.9h21.2l10.7,12.5v0.2H78.6V67.9z"/>
	<g>
		<path class="st0" d="M202,7.3h-22c-1.9,0-3.4,1.5-3.4,3.4v69.8h-2L146.2,9.5c-0.5-1.3-1.8-2.2-3.2-2.2h0c-1.4,0-2.7,0.9-3.2,2.2
			l-16.7,41.8h-5.7V10.8c0-1.4-0.9-2.7-2.3-3.2c-1.3-0.5-2.9-0.1-3.8,1L84.7,39.6L58,8.5c-0.9-1.1-2.5-1.5-3.8-1
			c-1.4,0.5-2.3,1.8-2.3,3.2V84c0,1.9,1.5,3.4,3.4,3.4s3.4-1.5,3.4-3.4V20.1L82,47.2c1.3,1.5,3.9,1.5,5.2,0l23.2-27.1v34.6
			c0,1.9,1.5,3.4,3.4,3.4h11.5c1.4,0,2.7-0.9,3.2-2.2L143,20l26.2,65.3c0.5,1.3,1.8,2.2,3.2,2.2h7.7c1.9,0,3.4-1.5,3.4-3.4V14.2H202
			c12.9,0,23.4,10.5,23.4,23.4c0,12.9-10.5,23.4-23.4,23.4h-15.7v6.9H202c16.7,0,30.3-13.6,30.3-30.3S218.7,7.3,202,7.3z"/>
		<path class="st0" d="M159.1,67.9l-2.8-6.9h-34.8c-1.4,0-2.7,0.9-3.2,2.2l-6.8,17.1l-3.2-7.5c-0.7-1.8-2.8-2.6-4.5-1.8
			c-1.7,0.7-2.6,2.8-1.8,4.5l6.3,14.8c0.4,0.8,1,1.5,1.9,1.8c0.4,0.2,0.8,0.2,1.3,0.2c0.5,0,0.9-0.1,1.4-0.3l14.8-6.3
			c1.7-0.7,2.6-2.8,1.8-4.5c-0.7-1.8-2.8-2.6-4.5-1.8l-6.8,2.9l5.8-14.4H159.1z"/>
	</g>
</g>
</svg>
